HIERARCHY
ROOT Hips
{
  OFFSET -4.34798 96.3774 -17.8012
  CHANNELS 6 Xposition Yposition Zposition Zrotation Xrotation Yrotation
  JOINT ToSpine
  {
    OFFSET -2.69724 7.43032 -0.144315
    CHANNELS 3 Zrotation Xrotation Yrotation
    JOINT Spine
    {
      OFFSET -0.0310711 10.7595 1.96963
      CHANNELS 3 Zrotation Xrotation Yrotation
      JOINT Spine1
      {
        OFFSET 13.1342 3.43533 0.764692
        CHANNELS 3 Zrotation Xrotation Yrotation
        JOINT Neck
        {
          OFFSET 29.8703 7.82586 -0.130764
          CHANNELS 3 Zrotation Xrotation Yrotation
          JOINT Head
          {
            OFFSET 9.52751 0.295786 -0.907742
            CHANNELS 3 Zrotation Xrotation Yrotation
            End Site
            {
              OFFSET 16.4037 0.713936 2.7358
            }
          }
        }
        JOINT LeftShoulder
        {
          OFFSET 27.5574 4.95586 2.47156
          CHANNELS 3 Zrotation Xrotation Yrotation
          JOINT LeftArm
          {
            OFFSET 1.20734 -0.998971 20.1238
            CHANNELS 3 Zrotation Xrotation Yrotation
            JOINT LeftForeArm
            {
              OFFSET 26.8049 -0.0536703 -0.155908
              CHANNELS 3 Zrotation Xrotation Yrotation
              JOINT LeftHand
              {
                OFFSET 26.6817 0 0.320147
                CHANNELS 3 Zrotation Xrotation Yrotation
                End Site
                {
                  OFFSET 18.6119 0 0.382219
                }
              }
            }
          }
        }
        JOINT RightShoulder
        {
          OFFSET 27.5927 4.71444 -2.65209
          CHANNELS 3 Zrotation Xrotation Yrotation
          JOINT RightArm
          {
            OFFSET 2.83739 -1.17114 -18.7564
            CHANNELS 3 Zrotation Xrotation Yrotation
            JOINT RightForeArm
            {
              OFFSET 28.839 -0.0548439 1.22491
              CHANNELS 3 Zrotation Xrotation Yrotation
              JOINT RightHand
              {
                OFFSET 26.5114 0 -0.101894
                CHANNELS 3 Zrotation Xrotation Yrotation
                End Site
                {
                  OFFSET 18.2168 0 0
                }
              }
            }
          }
        }
      }
    }
  }
  JOINT LeftUpLeg
  {
    OFFSET -4.76168 -1.9167 -10.2353
    CHANNELS 3 Zrotation Xrotation Yrotation
    JOINT LeftLeg
    {
      OFFSET 2.55951 -42.0585 -8.02213
      CHANNELS 3 Zrotation Xrotation Yrotation
      JOINT LeftFoot
      {
        OFFSET 3.16357 -42.5282 -3.95426
        CHANNELS 3 Zrotation Xrotation Yrotation
        JOINT LeftToeBase
        {
          OFFSET 0.346054 -6.02161 12.8035
          CHANNELS 3 Zrotation Xrotation Yrotation
          End Site
          {
            OFFSET 0.134235 -1.35082 5.13018
          }
        }
      }
    }
  }
  JOINT RightUpLeg
  {
    OFFSET -4.94151 -1.41743 10.6446
    CHANNELS 3 Zrotation Xrotation Yrotation
    JOINT RightLeg
    {
      OFFSET -2.56294 -42.0364 -7.94377
      CHANNELS 3 Zrotation Xrotation Yrotation
      JOINT RightFoot
      {
        OFFSET -3.0952 -42.555 -4.02241
        CHANNELS 3 Zrotation Xrotation Yrotation
        JOINT RightToeBase
        {
          OFFSET -0.0828122 -6.13587 12.8035
          CHANNELS 3 Zrotation Xrotation Yrotation
          End Site
          {
            OFFSET -0.131328 -1.35082 5.13018
          }
        }
      }
    }
  }
}
MOTION
Frames:	13
Frame Time:	0.0333333
18.2831 85.5361 -13.6922 52.4732 -40.293 -22.4871 -70.1915 0 88.8779 121.14 70.9537 -36.1618 3.27664 22.2595 3.55246 -113.852 31.3468 162.829 151.877 66.1612 -99.9726 1.00644 -8.45888 -5.94071 -67.3532 45.0656 -156.294 32.7575 -3.39569 -94.5385 0.420957 0.000576111 0.35866 -2.80841 8.13642 48.5562 -125.871 -4.06392 82.8884 11.493 -6.52908 60.807 0.58676 0.000331118 0.0646653 -9.98072 19.5749 79.8448 -2.87522 38.1973 -10.2536 -7.94607 15.0034 3.1154 3.76206 -8.17649 0.352249 -29.1091 -9.56454 95.3616 3.73325 57.9428 -1.93537 -5.71107 -18.2291 1.41458 2.28669 -19.0099 -16.4794 
24.1623 87.5638 -13.1802 55.3198 -42.6583 -21.4083 -70.1915 0 88.8779 119.754 72.224 -33.7847 1.80612 23.3951 3.64141 -114.995 32.8238 164.921 150.774 67.2329 -101.874 1.02044 -7.23519 -7.4559 -66.269 44.7907 -151.97 30.6512 -4.47575 -96.7798 0.420957 0.000576111 0.35866 -2.57776 7.7756 47.3227 -122.23 -3.00122 82.6436 9.06977 -7.41321 51.1782 0.58676 0.000331118 0.0646653 -18.1442 19.825 81.704 -2.83391 36.6275 -11.6527 -8.21247 10.4798 2.52549 3.13111 -6.84473 0.273166 -36.9379 -12.7009 93.9932 3.46513 52.2032 1.67846 -6.28993 -11.1814 1.21328 2.05193 -21.5655 -20.6317 
29.3804 89.1853 -13.1616 58.6123 -45.1255 -20.3215 -70.1915 0 88.8779 123.249 72.3725 -37.3738 -0.78183 24.1837 4.76105 -119.118 35.2523 168.182 146.875 68.109 -102.875 1.07968 -6.66379 -9.47084 -67.6457 45.481 -146.484 29.5581 -5.69101 -99.1861 0.420957 0.000576111 0.35866 -2.43536 7.8707 45.1477 -120.27 -2.78423 81.454 7.03652 -7.15719 44.962 0.58676 0.000331118 0.0646653 -24.5704 19.405 85.9445 -3.2032 39.3139 -13.3672 -6.5054 3.7721 1.24944 2.92525 -6.66449 1.11954 -41.4247 -15.3574 93.5168 2.69848 50.7051 -0.74638 -6.2531 -5.97852 1.09731 2.35501 -16.9844 -17.464 
33.5495 90.3097 -13.466 59.2593 -45.857 -20.7003 -70.1915 0 88.8779 118.597 73.7652 -32.8237 -1.52782 24.7471 4.82552 -120.609 35.6154 166.811 149.617 70.7703 -108.147 1.1107 -6.60954 -10.4375 -70.8698 44.8313 -142.29 26.6231 -5.93493 -100.912 0.420957 0.000576111 0.35866 -2.58901 8.07142 46.2133 -119.738 -0.212451 81.9702 5.99171 -7.13929 40.4795 0.58676 0.000331118 0.0646653 -26.8905 17.9862 89.3083 -3.42368 41.2305 -13.7486 -2.14883 3.51814 0.518853 4.55457 -10.464 3.84069 -41.2824 -17.2668 92.7347 2.35019 51.3039 -3.66079 -7.8481 -5.52461 1.2219 2.25231 -13.5901 -13.526 
37.2903 91.9497 -13.3306 60.8655 -46.7146 -20.0393 -70.1915 0 88.8779 117.776 74.603 -32.9514 -2.32075 25.2542 5.80811 -123.498 36.9307 167.021 146.225 71.865 -109.071 1.17057 -6.48726 -12.3078 -74.9865 43.7505 -139.02 28.1557 -6.79371 -101.715 0.420957 0.000576111 0.35866 -2.50891 7.74556 46.5598 -119.704 0.901291 81.9917 4.01951 -5.42545 37.1445 0.58676 0.000331118 0.0646653 -31.851 16.6531 91.604 -3.35471 39.7576 -14.3979 -2.92832 0.550454 0.346365 3.36066 -8.61411 5.87503 -43.1483 -17.7854 90.8716 2.49218 48.2423 0.0892424 -8.73517 -3.91443 1.28979 2.23354 -19.1722 -16.281 
40.672 93.4983 -13.1025 60.1431 -47.4937 -20.6613 -70.1915 0 88.8779 111.405 75.4445 -25.6519 -1.93029 25.54 4.8654 -126.65 37.6852 167.959 146.14 72.9512 -112.169 1.29343 -5.56439 -14.473 -78.6547 41.9386 -136.414 25.3178 -6.89701 -103.482 0.420957 0.000576111 0.35866 -2.5805 8.18636 45.6804 -120.692 -0.664582 80.3498 2.64281 -3.71597 36.35 0.58676 0.000331118 0.0646653 -34.5922 16.0646 93.884 -3.19477 38.3691 -14.0838 -2.11336 0.458593 0.226034 3.59673 -9.0455 5.84157 -43.9403 -17.1509 87.6993 2.43036 42.0548 3.905 -5.1477 -3.05957 0.896988 2.28189 -16.9963 -15.5161 
43.6201 94.6446 -12.6654 60.4268 -47.3201 -20.0924 -70.1915 0 88.8779 107.136 75.6292 -21.108 -1.90292 25.498 4.27932 -129.476 38.1094 166.981 147.452 74.5164 -116.483 1.35258 -5.18718 -15.3632 -80.87 41.0019 -135.74 19.8397 -5.98671 -105.337 0.420957 0.000576111 0.35866 -2.47875 7.94337 45.3922 -122.091 -1.80625 78.4117 3.03328 -4.09658 37.3289 0.58676 0.000331118 0.0646653 -36.9428 15.4659 95.5145 -3.1995 37.277 -15.1424 -2.46618 -0.13911 0.214774 3.59112 -9.34362 7.47115 -45.5422 -16.0683 84.4801 1.67173 34.9432 6.4741 -1.75577 1.28499 0.302606 2.22681 -16.5557 -11.4245 
46.2461 95.5794 -12.2305 61.6548 -46.9255 -19.2916 -70.1915 0 88.8779 103.856 75.7607 -19.2122 -2.29138 25.2161 4.95701 -130.752 38.1831 165.383 150.451 75.8907 -121.106 1.34105 -5.55133 -15.6341 -82.4445 40.9852 -135.783 18.78 -6.08381 -106.505 0.420957 0.000576111 0.35866 -2.37214 7.54261 45.6935 -122.833 -2.03876 76.8684 3.45828 -4.33309 39.3142 0.58676 0.000331118 0.0646653 -39.9753 14.4193 97.7542 -3.10307 35.5249 -15.6688 -2.06496 -0.664218 0.112213 3.27072 -8.87861 8.03697 -47.2798 -15.5257 79.7326 0.790181 28.8087 10.4598 -0.410305 4.81478 -0.154748 2.06967 -13.8711 -9.29938 
48.6333 96.2008 -11.9247 62.223 -46.1131 -19.3743 -70.1915 0 88.8779 97.356 75.6232 -14.2369 -2.52022 24.5168 5.52625 -131.464 38.3874 165.577 150.68 76.187 -122.068 1.3437 -5.86884 -16.2456 -84.3952 40.746 -135.148 18.2375 -6.3722 -107.79 0.420957 0.000576111 0.35866 -2.47161 7.66692 46.4187 -123.607 -1.80844 75.6296 3.93722 -4.48896 41.8943 0.58676 0.000331118 0.0646653 -41.8401 12.6326 99.2983 -3.03345 34.3929 -15.946 -2.15798 -1.39877 0.052799 2.71455 -8.12378 9.12681 -47.9303 -15.2475 78.5157 1.09517 24.0743 10.232 1.36958 7.62535 -0.703372 1.82336 -10.4887 -7.68644 
50.7153 96.5285 -11.6799 63.1452 -45.1368 -18.987 -70.1915 0 88.8779 93.5192 75.2988 -11.5737 -2.68888 23.9352 5.78929 -132.67 38.5134 165.314 152.713 76.8355 -125.22 1.33943 -6.39834 -17.1447 -85.7533 39.5818 -135.813 17.1473 -6.1853 -108.41 0.420957 0.000576111 0.35866 -2.31237 7.14312 46.6231 -124.635 -2.54741 74.2224 4.64518 -4.6073 45.7822 0.58676 0.000331118 0.0646653 -43.2614 10.9006 100.103 -2.99212 33.8649 -15.4845 -1.70653 -1.70422 -0.0279095 2.92443 -8.465 9.00876 -48.2246 -15.3338 78.2987 1.50433 21.6029 4.68719 2.55286 8.4108 -1.01035 1.28728 -6.53301 -4.84729 
52.6069 96.6888 -11.4541 64.276 -44.0718 -18.1563 -70.1915 0 88.8779 90.73 74.9734 -9.27269 -2.51429 23.5485 5.63295 -132.896 38.6365 164.785 154.48 77.4374 -127.563 1.26734 -7.64991 -18.3419 -86.6206 38.4259 -136.456 16.441 -5.93697 -108.47 0.420957 0.000576111 0.35866 -2.29251 7.11289 46.4912 -125.726 -2.93942 72.1429 5.8852 -5.15665 49.2235 0.58676 0.000331118 0.0646653 -44.3029 9.53811 100.64 -2.92944 33.9223 -14.2546 -0.848838 -2.54787 -0.199204 2.94143 -8.21438 7.64498 -49.2034 -15.5534 78.114 1.70626 19.5392 -0.888572 1.24187 9.81283 -0.871478 0.884741 -6.14971 -1.38976 
54.3086 96.7799 -11.1557 65.3487 -43.5783 -17.6115 -70.1915 0 88.8779 87.5193 74.8053 -6.71065 -1.98953 23.2765 5.65249 -132.399 38.8141 164.479 154.881 77.796 -127.8 1.24167 -8.12967 -19.2048 -86.3191 37.8573 -136.956 16.6763 -6.09141 -108.659 0.420957 0.000576111 0.35866 -2.20038 6.91344 46.1302 -126.493 -3.80476 70.949 6.59408 -5.29626 51.64 0.58676 0.000331118 0.0646653 -45.4705 8.48399 101.311 -2.92488 34.4073 -13.5976 -0.365884 -3.89623 -0.360221 2.68543 -7.58807 6.92333 -50.4706 -16.0739 77.7398 1.65707 18.5284 -3.74139 1.89226 9.77061 -1.00416 1.09099 -4.60087 -4.51612 
55.884 96.7132 -10.921 66.1487 -43.5144 -17.4116 -70.1915 0 88.8779 84.7396 74.8471 -4.23936 -1.55884 23.2914 5.67616 -132.073 39.0073 164.716 153.919 77.8815 -127.251 1.22599 -8.42553 -20.0127 -86.0909 37.7144 -136.807 16.9961 -6.02697 -108.121 0.420957 0.000576111 0.35866 -2.14893 6.81567 45.8598 -127.157 -4.35691 69.8906 6.87217 -5.14263 53.5816 0.58676 0.000331118 0.0646653 -46.4014 7.23206 101.192 -2.87765 35.3205 -12.845 0.595233 -5.5348 -0.572434 2.02602 -6.51534 7.44167 -51.6769 -16.5523 77.4656 1.27407 18.2306 -3.70818 2.59914 9.04067 -1.08752 1.73048 -3.67929 -9.864 
